<?xml version="1.0" encoding="UTF-8"?>
<svg version="1.1" xmlns="http://www.w3.org/2000/svg" width="512" height="512">
<path d="M0 0 C0.81597656 0.70511719 1.63195312 1.41023438 2.47265625 2.13671875 C32.5267483 28.66624216 57.730361 64.85212439 61 106 C61.74660065 123.8799971 62.0205498 141.68024944 57 159 C56.67854004 160.1439624 56.67854004 160.1439624 56.35058594 161.31103516 C53.13353014 172.50048907 48.63202465 182.82552495 43 193 C42.6400293 193.65129883 42.28005859 194.30259766 41.90917969 194.97363281 C37.03129348 203.68137132 31.61708179 211.4905972 25 219 C24.31550781 219.7940625 23.63101562 220.588125 22.92578125 221.40625 C18.31766336 226.65320124 13.46824825 231.65795335 8.5625 236.625 C7.94673096 237.2538208 7.33096191 237.8826416 6.6965332 238.53051758 C6.11734131 239.1108374 5.53814941 239.69115723 4.94140625 240.2890625 C4.42263916 240.81193848 3.90387207 241.33481445 3.36938477 241.87353516 C2 243 2 243 0 243 C0 288.54 0 334.08 0 381 C-7.87286064 374.25183374 -7.87286064 374.25183374 -10.86975098 371.19667053 C-11.55080399 370.50543091 -12.23185699 369.81419128 -12.93354797 369.102005 C-13.65479355 368.36459579 -14.37603912 367.62718658 -15.11914062 366.86743164 C-16.73377246 365.22649519 -18.34848136 363.58563457 -19.96325684 361.94483948 C-20.80929977 361.08332338 -21.65534271 360.22180729 -22.52702332 359.33418465 C-27.02905324 354.75544067 -31.54910466 350.1945284 -36.06640625 345.63085938 C-41.80546065 339.83228713 -47.53860316 334.02821267 -53.24951172 328.2019043 C-57.87545904 323.48260749 -62.52215528 318.78441355 -67.1816864 314.09823418 C-68.95271203 312.30990166 -70.71653476 310.51440637 -72.47297668 308.71174812 C-74.92413477 306.19801781 -77.39894219 303.7101181 -79.88085938 301.22680664 C-80.60210495 300.47522781 -81.32335052 299.72364899 -82.06645203 298.94929504 C-86.18338925 294.76438871 -86.18338925 294.76438871 -91.8583374 294.01176453 C-93.41346039 294.50094109 -93.41346039 294.50094109 -95 295 C-95.78729492 295.19303711 -96.57458984 295.38607422 -97.38574219 295.58496094 C-98.09891602 295.79926758 -98.81208984 296.01357422 -99.546875 296.234375 C-163.46352172 314.86044876 -234.52670087 314.56033046 -298 294 C-298.82467773 293.73606445 -299.64935547 293.47212891 -300.49902344 293.20019531 C-324.06270558 285.57048469 -347.53872069 275.06149591 -368 261 C-368.52867676 260.63970703 -369.05735352 260.27941406 -369.60205078 259.90820312 C-409.88668446 232.32510448 -440.81514952 194.34625252 -450.078125 145.59375 C-451.31923343 137.91058405 -451.39625013 130.25994612 -451.375 122.5 C-451.37445618 121.75121582 -451.37391235 121.00243164 -451.37335205 120.23095703 C-451.33290606 108.09327736 -450.41834896 96.70667452 -447 85 C-446.78569336 84.23880859 -446.57138672 83.47761719 -446.35058594 82.69335938 C-438.62534103 55.81805321 -423.16281155 33.03878699 -404 13 C-403.12601562 12.07316406 -402.25203125 11.14632812 -401.3515625 10.19140625 C-331.34599186 -62.17505607 -213.69595155 -76.96464341 0 0 Z " fill="#FED943" transform="translate(451,98)"/>
<path d="M0 0 C1.859375 2.51953125 1.859375 2.51953125 3.75 5.8125 C4.38421875 6.89144531 5.0184375 7.97039062 5.671875 9.08203125 C7 12 7 12 6 15 C3.85611771 16.39111463 1.73225875 17.64218055 -0.5 18.875 C-14.75013813 27.10392871 -27.20078431 37.5973966 -39 49 C-40.10214844 50.02480469 -40.10214844 50.02480469 -41.2265625 51.0703125 C-64.26512556 73.00743032 -80.75720851 106.12407184 -82.12792969 137.97241211 C-83.10869845 178.32722567 -70.12726823 212.0557246 -42.28735352 241.5534668 C-41.31214918 242.57148109 -40.33430139 243.5869713 -39.35351562 244.59960938 C-38.12388005 245.87182973 -36.91242516 247.16155952 -35.703125 248.453125 C-13.26174418 271.87734002 18.12802254 287.55383288 48 299 C49.0521167 299.403396 49.0521167 299.403396 50.12548828 299.81494141 C73.82528033 308.70467364 99.82935615 313.77995042 125 316 C126.14597656 316.11214844 127.29195312 316.22429687 128.47265625 316.33984375 C164.07195238 319.32348166 201.44271448 317.19925552 235.953125 307.734375 C239 307 239 307 243 307 C243.67184618 309.10251861 244.33730968 311.20707763 245 313.3125 C245.37125 314.48425781 245.7425 315.65601563 246.125 316.86328125 C247 320 247 320 247 323 C233.12107396 326.32481234 219.26243405 329.31260775 205.125 331.3125 C204.00512695 331.47137695 202.88525391 331.63025391 201.73144531 331.79394531 C152.78352213 338.41246093 101.00769405 334.22677625 54 319 C53.17532227 318.73606445 52.35064453 318.47212891 51.50097656 318.20019531 C27.93729442 310.57048469 4.46127931 300.06149591 -16 286 C-16.52867676 285.63970703 -17.05735352 285.27941406 -17.60205078 284.90820312 C-57.88668446 257.32510448 -88.81514952 219.34625252 -98.078125 170.59375 C-99.31923343 162.91058405 -99.39625013 155.25994612 -99.375 147.5 C-99.37445618 146.75121582 -99.37391235 146.00243164 -99.37335205 145.23095703 C-99.33290606 133.09327736 -98.41834896 121.70667452 -95 110 C-94.78569336 109.23880859 -94.57138672 108.47761719 -94.35058594 107.69335938 C-86.62534103 80.81805321 -71.16281155 58.03878699 -52 38 C-51.12601563 37.07316406 -50.25203125 36.14632812 -49.3515625 35.19140625 C-37.06455385 22.49002634 -22.78591302 12.96239939 -8.04614258 3.33764648 C-2.94068261 0 -2.94068261 0 0 0 Z " fill="#080602" transform="translate(99,73)"/>
<path d="M0 0 C0.81597656 0.70511719 1.63195312 1.41023438 2.47265625 2.13671875 C32.5267483 28.66624216 57.730361 64.85212439 61 106 C61.74660065 123.8799971 62.0205498 141.68024944 57 159 C56.67854004 160.1439624 56.67854004 160.1439624 56.35058594 161.31103516 C53.13353014 172.50048907 48.63202465 182.82552495 43 193 C42.6400293 193.65129883 42.28005859 194.30259766 41.90917969 194.97363281 C37.0277181 203.6877539 31.57472872 211.44605637 25 219 C23.9761774 220.2266779 22.95473619 221.45535475 21.9375 222.6875 C21.298125 223.450625 20.65875 224.21375 20 225 C11.55353075 218.84965831 11.55353075 218.84965831 8 215 C9.00060949 211.44227738 10.59854571 209.21467302 13.0625 206.5625 C18.17033504 200.90361222 22.09919127 194.51774259 26 188 C26.35771484 187.40268066 26.71542969 186.80536133 27.08398438 186.18994141 C32.58601778 176.84106118 36.27323305 167.2628988 39.40917969 156.89404297 C39.90028213 155.31967405 40.46118471 153.76728448 41.0390625 152.22265625 C43.89519923 142.64414894 44.32939404 133.06214816 44.25 123.125 C44.23876099 121.2702002 44.23876099 121.2702002 44.22729492 119.37792969 C43.87984716 89.97491987 33.05375712 61.53153026 14 39 C13.55221191 38.46487793 13.10442383 37.92975586 12.64306641 37.37841797 C3.79770314 26.82104891 -5.15129516 17.55489624 -16 9 C-16.928125 8.26652344 -17.85625 7.53304687 -18.8125 6.77734375 C-45.25487834 -13.59334717 -75.22172247 -26.46230966 -107 -36 C-108.66107788 -36.51022705 -108.66107788 -36.51022705 -110.35571289 -37.03076172 C-118.76900165 -39.54382966 -127.1452139 -41.25196458 -135.8125 -42.625 C-137.03775391 -42.82867187 -138.26300781 -43.03234375 -139.52539062 -43.2421875 C-143.34568431 -43.86395674 -147.17024944 -44.43957807 -151 -45 C-152.24378418 -45.19198975 -153.48756836 -45.38397949 -154.76904297 -45.58178711 C-167.10227987 -47.28515109 -179.3993689 -47.33809976 -191.83496094 -47.31567383 C-195.46580517 -47.31252961 -199.09581922 -47.3359985 -202.7265625 -47.36132812 C-224.98814369 -47.42471295 -246.35122883 -45.06971088 -268 -39.9375 C-269.54399452 -39.58148185 -271.08826689 -39.22666653 -272.6328125 -38.87304688 C-275.51847519 -38.21072367 -278.4025857 -37.54235041 -281.28515625 -36.86669922 C-285.51688743 -35.87940652 -289.75556148 -34.93088254 -294 -34 C-294.83739781 -36.1234016 -295.66980283 -38.2487728 -296.5 -40.375 C-296.9640625 -41.55835937 -297.428125 -42.74171875 -297.90625 -43.9609375 C-299 -47 -299 -47 -299 -49 C-208.04298873 -79.23323571 -98.28602841 -68.82470747 0 0 Z " fill="#070602" transform="translate(451,98)"/>
<path d="M0 0 C5.28 0 10.56 0 16 0 C16 53.79 16 107.58 16 163 C8.12469857 156.24974164 8.12469857 156.24974164 5.09228516 153.2192688 C4.40281799 152.53262146 3.71335083 151.84597412 3.00299072 151.13851929 C2.27239441 150.40589874 1.5417981 149.6732782 0.7890625 148.91845703 C-0.39529388 147.73672913 -0.39529388 147.73672913 -1.60357666 146.53112793 C-4.19656138 143.94252166 -6.78589757 141.35030138 -9.375 138.7578125 C-11.18654016 136.94694659 -12.9982287 135.1362291 -14.81005859 133.32565308 C-18.60091216 129.53627111 -22.39000623 125.74514185 -26.17773438 121.95263672 C-30.53895222 117.58598171 -34.90375515 113.22293519 -39.27044487 108.86175263 C-43.49241715 104.64488936 -47.71154547 100.42518932 -51.92950439 96.20431137 C-53.71485102 94.41830024 -55.50093367 92.63302452 -57.28778076 90.84851456 C-59.79064384 88.34820709 -62.2902517 85.84468852 -64.7890625 83.34033203 C-65.51965881 82.61175995 -66.25025513 81.88318787 -67.00299072 81.13253784 C-71.00176318 77.11741096 -74.82736372 73.00721334 -78.51844883 68.70683861 C-80.46092122 66.46899024 -82.51852033 64.36847617 -84.62109375 62.28125 C-85.41064453 61.49492187 -86.20019531 60.70859375 -87.01367188 59.8984375 C-87.81353516 59.10695313 -88.61339844 58.31546875 -89.4375 57.5 C-90.26443359 56.67757812 -91.09136719 55.85515625 -91.94335938 55.0078125 C-93.95994959 53.00287887 -95.97885236 51.00033747 -98 49 C-97.05052441 47.88322508 -96.09975103 46.76755346 -95.1484375 45.65234375 C-94.61911621 45.03093506 -94.08979492 44.40952637 -93.54443359 43.76928711 C-91.78334607 41.7518035 -89.93011408 39.85587892 -88 38 C-84.88534154 39.38434738 -82.76901869 40.98319641 -80.36798096 43.39151001 C-79.66555897 44.09117701 -78.96313698 44.790844 -78.23942947 45.51171303 C-77.47624783 46.28209089 -76.71306618 47.05246876 -75.92675781 47.84619141 C-75.10356426 48.66914389 -74.28037071 49.49209637 -73.4322319 50.3399868 C-70.76783726 53.00587461 -68.11038259 55.67856265 -65.453125 58.3515625 C-63.80953533 59.99809259 -62.16549521 61.64417316 -60.52099609 63.28979492 C-54.42519919 69.39607934 -48.33812973 75.51107118 -42.25 81.625 C-21.83125 102.105625 -21.83125 102.105625 -1 123 C-0.67 82.41 -0.34 41.82 0 0 Z " fill="#060501" transform="translate(435,316)"/>
<path d="M0 0 C9.0449037 5.71467406 15.55225617 14.09072689 17.96484375 24.55078125 C18.22949437 26.2539783 18.45830908 27.96310186 18.65234375 29.67578125 C18.81283203 30.95582031 18.81283203 30.95582031 18.9765625 32.26171875 C19.60587239 41.79925968 15.72787704 51.22090437 9.83984375 58.67578125 C2.78006238 65.97581696 -5.38047884 69.8417983 -15.55102539 70.05639648 C-26.37910107 70.02839809 -33.37557734 68.21840745 -41.49609375 60.6640625 C-48.51672681 53.12502827 -52.92567163 44.68023405 -52.72265625 34.30078125 C-52.71250488 33.55054688 -52.70235352 32.8003125 -52.69189453 32.02734375 C-52.39698528 21.49291083 -48.72526655 13.42778214 -41.49609375 5.6953125 C-30.03698582 -5.01050746 -14.13687469 -6.88421195 0 0 Z " fill="#040301" transform="translate(370.34765625,191.32421875)"/>
<path d="M0 0 C9.0449037 5.71467406 15.55225617 14.09072689 17.96484375 24.55078125 C18.22949437 26.2539783 18.45830908 27.96310186 18.65234375 29.67578125 C18.81283203 30.95582031 18.81283203 30.95582031 18.9765625 32.26171875 C19.60587239 41.79925968 15.72787704 51.22090437 9.83984375 58.67578125 C2.78006238 65.97581696 -5.38047884 69.8417983 -15.55102539 70.05639648 C-26.37910107 70.02839809 -33.37557734 68.21840745 -41.49609375 60.6640625 C-48.51672681 53.12502827 -52.92567163 44.68023405 -52.72265625 34.30078125 C-52.71250488 33.55054688 -52.70235352 32.8003125 -52.69189453 32.02734375 C-52.39698528 21.49291083 -48.72526655 13.42778214 -41.49609375 5.6953125 C-30.03698582 -5.01050746 -14.13687469 -6.88421195 0 0 Z " fill="#040301" transform="translate(292.34765625,191.32421875)"/>
<path d="M0 0 C9.0449037 5.71467406 15.55225617 14.09072689 17.96484375 24.55078125 C18.22949437 26.2539783 18.45830908 27.96310186 18.65234375 29.67578125 C18.81283203 30.95582031 18.81283203 30.95582031 18.9765625 32.26171875 C19.60587239 41.79925968 15.72787704 51.22090437 9.83984375 58.67578125 C2.78006238 65.97581696 -5.38047884 69.8417983 -15.55102539 70.05639648 C-26.37910107 70.02839809 -33.37557734 68.21840745 -41.49609375 60.6640625 C-48.51672681 53.12502827 -52.92567163 44.68023405 -52.72265625 34.30078125 C-52.71250488 33.55054688 -52.70235352 32.8003125 -52.69189453 32.02734375 C-52.39698528 21.49291083 -48.72526655 13.42778214 -41.49609375 5.6953125 C-30.03698582 -5.01050746 -14.13687469 -6.88421195 0 0 Z " fill="#040301" transform="translate(214.34765625,191.32421875)"/>
<path d="M0 0 C10.4259375 -0.12375 10.4259375 -0.12375 21.0625 -0.25 C24.33426147 -0.30462402 24.33426147 -0.30462402 27.67211914 -0.36035156 C29.41812152 -0.37204372 31.16413488 -0.3822343 32.91015625 -0.390625 C33.80279175 -0.41108887 34.69542725 -0.43155273 35.6151123 -0.45263672 C42.38146584 -0.45638695 46.74241294 0.91424171 51.77734375 5.68359375 C55.79214579 11.7531093 56.12489131 17.89635563 55 25 C53.17031178 29.46638722 50.43702172 32.67384995 47 36 C47.9075 36.556875 48.815 37.11375 49.75 37.6875 C53.42403253 40.30171545 55.97923839 42.95847678 58 47 C58.65298597 54.65385198 58.94895305 60.87892649 54 67 C47.12167379 72.53256674 40.72575735 73.29456747 32.2265625 73.1953125 C30.99715942 73.19229126 30.99715942 73.19229126 29.74291992 73.18920898 C26.70355573 73.17880502 23.66427179 73.15088271 20.625 73.125 C10.415625 73.063125 10.415625 73.063125 0 73 C0 48.91 0 24.82 0 0 Z " fill="#020200" transform="translate(96,188)"/>
<path d="M0 0 C5.28 0 10.56 0 16 0 C16.04125 2.3925 16.0825 4.785 16.125 7.25 C17.38230945 34.7945406 32.37743736 58.67839221 51 78 C51.63164063 78.69480469 52.26328125 79.38960938 52.9140625 80.10546875 C70.36460283 98.7475658 94.8617255 110.16923052 118 120 C116.9318153 125.11365014 115.76892524 130.07227969 114 135 C106.65336372 133.03327015 99.90677465 130.36450565 93.0625 127.0625 C92.06903564 126.58449951 91.07557129 126.10649902 90.05200195 125.61401367 C76.48007683 118.94013076 63.38542375 111.01271308 52 101 C50.69289063 99.8553125 50.69289063 99.8553125 49.359375 98.6875 C45.11133135 94.9114612 40.96737435 91.07177894 37 87 C36.43152344 86.47664063 35.86304688 85.95328125 35.27734375 85.4140625 C16.28010878 67.51209555 0.65800914 37.81575929 -0.2421875 11.37109375 C-0.30587187 7.56393468 -0.1376064 3.81857751 0 0 Z " fill="#FFFEFB" transform="translate(47,215)"/>
<path d="M0 0 C5.31881568 0.59658122 9.62444197 2.36511074 14.4375 4.5625 C15.22809814 4.92037598 16.01869629 5.27825195 16.83325195 5.64697266 C38.72820569 15.68133568 57.31843118 28.59882065 75 45 C75.60328125 45.54914063 76.2065625 46.09828125 76.828125 46.6640625 C93.27466467 62.26521929 105.72888444 84.13463174 111 106 C111.2990625 107.155 111.598125 108.31 111.90625 109.5 C113.91398953 117.82840102 114.26205995 125.43937489 114 134 C108.72 134 103.44 134 98 134 C97.95875 131.793125 97.9175 129.58625 97.875 127.3125 C96.69375072 103.99566639 85.99975734 82.4997169 71 65 C70.57106445 64.4942041 70.14212891 63.9884082 69.70019531 63.46728516 C50.90716671 41.4770734 25.68060956 25.98307946 -1.359375 16.12109375 C-4 15 -4 15 -5 13 C-4.26711523 10.76398294 -3.44009385 8.55828225 -2.5625 6.375 C-2.08941406 5.18648438 -1.61632812 3.99796875 -1.12890625 2.7734375 C-0.75636719 1.85820313 -0.38382812 0.94296875 0 0 Z " fill="#FFFEFB" transform="translate(348,86)"/>
<path d="M0 0 C6.93934137 3.16023136 10.81186032 8.31801079 13.74609375 15.3125 C14.20634812 18.09441944 14.27051059 20.80892474 14.24609375 23.625 C14.24109863 24.3768457 14.23610352 25.12869141 14.23095703 25.90332031 C14.00975753 32.95424501 12.17140209 37.7820671 7.21875 42.88671875 C1.82863513 47.6733602 -2.37654728 48.77555032 -9.43359375 48.625 C-15.23951452 47.98168468 -18.90287018 45.60349002 -23.06640625 41.625 C-28.08408023 34.02680797 -29.30258498 26.34078011 -28.25390625 17.3125 C-26.46726103 10.06478827 -22.26375433 5.54991242 -16.25390625 1.3125 C-11.24202596 -1.68460441 -5.53030862 -1.6868879 0 0 Z " fill="#FBD743" transform="translate(360.25390625,200.6875)"/>
<path d="M0 0 C6.93934137 3.16023136 10.81186032 8.31801079 13.74609375 15.3125 C14.20634812 18.09441944 14.27051059 20.80892474 14.24609375 23.625 C14.24109863 24.3768457 14.23610352 25.12869141 14.23095703 25.90332031 C14.00975753 32.95424501 12.17140209 37.7820671 7.21875 42.88671875 C1.82863513 47.6733602 -2.37654728 48.77555032 -9.43359375 48.625 C-15.23951452 47.98168468 -18.90287018 45.60349002 -23.06640625 41.625 C-28.08408023 34.02680797 -29.30258498 26.34078011 -28.25390625 17.3125 C-26.46726103 10.06478827 -22.26375433 5.54991242 -16.25390625 1.3125 C-11.24202596 -1.68460441 -5.53030862 -1.6868879 0 0 Z " fill="#FBD743" transform="translate(282.25390625,200.6875)"/>
<path d="M0 0 C6.93934137 3.16023136 10.81186032 8.31801079 13.74609375 15.3125 C14.20634812 18.09441944 14.27051059 20.80892474 14.24609375 23.625 C14.24109863 24.3768457 14.23610352 25.12869141 14.23095703 25.90332031 C14.00975753 32.95424501 12.17140209 37.7820671 7.21875 42.88671875 C1.82863513 47.6733602 -2.37654728 48.77555032 -9.43359375 48.625 C-15.23951452 47.98168468 -18.90287018 45.60349002 -23.06640625 41.625 C-28.08408023 34.02680797 -29.30258498 26.34078011 -28.25390625 17.3125 C-26.46726103 10.06478827 -22.26375433 5.54991242 -16.25390625 1.3125 C-11.24202596 -1.68460441 -5.53030862 -1.6868879 0 0 Z " fill="#FBD743" transform="translate(204.25390625,200.6875)"/>
<path d="M0 0 C4.62 0 9.24 0 14 0 C14 15.51 14 31.02 14 47 C9.38 47 4.76 47 0 47 C0 31.49 0 15.98 0 0 Z " fill="#060501" transform="translate(401,187)"/>
<path d="M0 0 C3.9168502 -0.05390161 7.83296001 -0.09362783 11.75 -0.125 C12.86117187 -0.14175781 13.97234375 -0.15851563 15.1171875 -0.17578125 C16.72207031 -0.18544922 16.72207031 -0.18544922 18.359375 -0.1953125 C19.34389648 -0.20578613 20.32841797 -0.21625977 21.34277344 -0.22705078 C24.12420244 0.01061267 25.68502545 0.46497417 28 2 C30.09700424 5.14550636 30.32924468 7.06295435 30.55859375 10.76953125 C29.6329933 14.4654603 28.185393 16.96408104 25 19 C20.7089986 19.7457816 16.52609743 19.56458577 12.1875 19.375 C10.43276367 19.33439453 10.43276367 19.33439453 8.64257812 19.29296875 C5.76092804 19.22239773 2.88022779 19.11478399 0 19 C0 12.73 0 6.46 0 0 Z " fill="#FDD843" transform="translate(110,230)"/>
<path d="M0 0 C3.39631472 -0.08107913 6.79068616 -0.14053944 10.1875 -0.1875 C11.14720703 -0.21263672 12.10691406 -0.23777344 13.09570312 -0.26367188 C22.07416443 -0.3568739 22.07416443 -0.3568739 26 3 C27.72515631 6.45031261 27.49677924 10.22716304 27 14 C24.80168636 17.03215675 23.55036806 17.81654398 20 19 C18.44578271 19.08106686 16.88832973 19.10756898 15.33203125 19.09765625 C14.43935547 19.09443359 13.54667969 19.09121094 12.62695312 19.08789062 C11.23379883 19.07532227 11.23379883 19.07532227 9.8125 19.0625 C8.87212891 19.05798828 7.93175781 19.05347656 6.96289062 19.04882812 C4.64189992 19.03704645 2.32094193 19.01911114 0 19 C0 12.73 0 6.46 0 0 Z " fill="#F8D442" transform="translate(110,200)"/>
<path d="M0 0 C2.475 7.425 2.475 7.425 5 15 C2.06543799 16.34014657 -0.87230628 17.67231527 -3.8125 19 C-4.64587891 19.3815625 -5.47925781 19.763125 -6.33789062 20.15625 C-7.14033203 20.5171875 -7.94277344 20.878125 -8.76953125 21.25 C-9.50792236 21.58515625 -10.24631348 21.9203125 -11.00708008 22.265625 C-13 23 -13 23 -16 23 C-17.00460531 20.87717331 -18.00355602 18.75166979 -19 16.625 C-19.556875 15.44164063 -20.11375 14.25828125 -20.6875 13.0390625 C-22 10 -22 10 -22 8 C-18.89954577 6.65791246 -15.79407011 5.32786246 -12.6875 4 C-11.80642578 3.6184375 -10.92535156 3.236875 -10.01757812 2.84375 C-9.17001953 2.4828125 -8.32246094 2.121875 -7.44921875 1.75 C-6.66893311 1.41484375 -5.88864746 1.0796875 -5.0847168 0.734375 C-3 0 -3 0 0 0 Z " fill="#0A0802" transform="translate(142,53)"/>
<path d="M0 0 C7.30645606 1.05084393 14.06392339 2.45677191 21 5 C20.69052329 6.93798521 20.37731166 8.87537426 20.0625 10.8125 C19.80146484 12.43091797 19.80146484 12.43091797 19.53515625 14.08203125 C19 17 19 17 18 20 C12.87475334 19.36684209 8.03469229 18.31839344 3.0625 16.9375 C2.37865234 16.75123047 1.69480469 16.56496094 0.99023438 16.37304688 C-0.67420293 15.91910943 -2.33725312 15.46009084 -4 15 C-3.52229477 13.06213915 -3.04278429 11.12472326 -2.5625 9.1875 C-2.29566406 8.10855469 -2.02882812 7.02960938 -1.75390625 5.91796875 C-1.23922588 3.9259157 -0.65062825 1.95188476 0 0 Z " fill="#FFFDF8" transform="translate(175,339)"/>
<path d="M0 0 C7.19315625 1.16239217 14.06974434 2.74503612 21 5 C19.46511628 17.53488372 19.46511628 17.53488372 17 20 C10.21431098 19.38311918 3.61286627 17.58112141 -3 16 C-2.68954268 14.0830014 -2.37655329 12.16641277 -2.0625 10.25 C-1.88847656 9.18265625 -1.71445312 8.1153125 -1.53515625 7.015625 C-1.11295829 4.63652407 -0.62797116 2.33084789 0 0 Z " fill="#FFFDF9" transform="translate(316,76)"/>
<path d="M0 0 C4.62 0 9.24 0 14 0 C14 5.28 14 10.56 14 16 C9.38 16 4.76 16 0 16 C0 10.72 0 5.44 0 0 Z " fill="#0D0B03" transform="translate(401,245)"/>
</svg>
